<svg xmlns="http://www.w3.org/2000/svg" viewBox="0 0 64 64"><circle cx="32" cy="32" r="32" fill="#f9c65b"/><path fill="#ffe27b" d="M55.52 10.3a31.844 31.844 0 0 0-21.7-8.48c-17.67 0-32 14.33-32 32 0 8.37 3.22 15.99 8.48 21.7C3.97 49.67 0 41.3 0 32 0 14.33 14.33 0 32 0c9.3 0 17.67 3.97 23.52 10.3z"/><path fill="#f6b444" d="M64 32c0 17.67-14.33 32-32 32-9.28 0-17.64-3.95-23.48-10.26a31.884 31.884 0 0 0 21.74 8.52c17.67 0 32-14.33 32-32 0-8.39-3.23-16.03-8.52-21.74C60.05 14.36 64 22.72 64 32z"/><circle cx="32" cy="32" r="26.36" fill="#f6b444" transform="rotate(-76.714 32.003 32.001)"/><path fill="#f09922" d="M51.64 14.42A26.252 26.252 0 0 0 34.06 7.7C19.5 7.69 7.69 19.5 7.69 34.06c0 6.76 2.54 12.92 6.72 17.58C9.03 46.81 5.64 39.8 5.64 32 5.64 17.44 17.44 5.64 32 5.64c7.8 0 14.82 3.39 19.64 8.78z"/><circle cx="32" cy="32" r="20.19" fill="#ffca5c"/><path fill="#f09922" d="M54 33.81C54 44.96 44.96 54 33.81 54c-6.04 0-11.45-2.65-15.15-6.85 3.56 3.14 8.23 5.04 13.35 5.04 11.15 0 20.19-9.04 20.19-20.19 0-5.12-1.9-9.79-5.04-13.35 4.19 3.7 6.84 9.12 6.84 15.16z"/><path fill="#f09922" d="M34.05 40.22c0 .1-.02.18-.05.25-.04.07-.12.13-.26.17-.14.05-.34.08-.6.1-.26.02-.62.03-1.08.03-.38 0-.69-.01-.92-.03-.23-.02-.41-.05-.54-.1-.13-.05-.23-.11-.28-.19-.05-.08-.1-.17-.14-.28l-1.59-3.95c-.19-.45-.38-.84-.56-1.19-.18-.35-.39-.64-.61-.87a2.26 2.26 0 0 0-.77-.53c-.29-.12-.63-.18-1.01-.18h-1.12v6.74c0 .09-.03.17-.09.25-.06.07-.16.13-.29.18-.14.05-.32.08-.55.11-.23.03-.52.04-.87.04s-.64-.01-.87-.04c-.23-.03-.42-.06-.55-.11-.14-.05-.23-.1-.29-.18a.438.438 0 0 1-.08-.25V24.13c0-.4.1-.69.31-.87.2-.17.46-.26.76-.26h4.58c.46 0 .85.01 1.15.03.3.02.57.04.82.07.71.1 1.35.27 1.92.52.57.25 1.05.57 1.45.96.4.4.7.87.91 1.41.21.54.31 1.16.31 1.87 0 .59-.08 1.13-.23 1.62-.15.49-.37.92-.66 1.31-.29.38-.65.72-1.08 1-.43.28-.92.51-1.46.68.26.13.51.28.74.46.23.18.45.4.66.66.2.26.4.56.58.89.18.33.36.71.53 1.13l1.49 3.49c.14.35.23.6.27.76.05.14.07.27.07.36zm-4.63-12c0-.58-.13-1.07-.4-1.48-.26-.4-.7-.68-1.3-.85a4.64 4.64 0 0 0-.62-.11c-.23-.03-.55-.04-.96-.04h-1.61v5.02h1.83c.51 0 .96-.06 1.34-.18.38-.12.7-.3.96-.52.26-.22.45-.49.57-.8.13-.31.19-.66.19-1.04zm14.49 8.47c0 .67-.13 1.26-.38 1.77s-.61.94-1.06 1.28c-.46.34-1 .6-1.63.77-.63.17-1.3.26-2.04.26-.44 0-.86-.03-1.26-.1s-.76-.15-1.08-.25c-.32-.1-.58-.2-.79-.31-.21-.11-.37-.2-.46-.3-.1-.09-.17-.24-.22-.44-.05-.2-.08-.49-.08-.88 0-.26.01-.46.03-.61.02-.15.04-.28.08-.37.04-.09.08-.15.13-.19.05-.03.12-.05.2-.05.1 0 .24.05.43.16s.43.23.71.36c.28.13.61.26.98.37.37.11.8.17 1.28.17.3 0 .57-.03.8-.09.23-.06.44-.15.61-.26.17-.11.3-.26.39-.44.09-.18.13-.38.13-.61 0-.26-.08-.49-.24-.68-.16-.19-.38-.35-.65-.5-.27-.14-.57-.27-.91-.4-.34-.12-.69-.26-1.04-.41-.36-.15-.7-.32-1.04-.52-.34-.19-.64-.43-.91-.71-.27-.28-.48-.62-.65-1.02-.16-.4-.24-.87-.24-1.43 0-.56.11-1.08.33-1.55.22-.47.54-.87.95-1.21.41-.33.92-.59 1.51-.78.59-.19 1.26-.28 2-.28a7.623 7.623 0 0 1 2.03.28c.28.08.52.17.71.26.19.09.33.17.42.24.08.07.14.13.18.2.04.07.06.14.08.24.02.09.03.21.05.34.01.14.02.31.02.51 0 .24-.01.43-.02.58-.01.15-.04.27-.07.36-.03.09-.07.15-.13.18-.05.03-.11.05-.19.05s-.2-.05-.37-.14c-.17-.09-.38-.19-.63-.3-.25-.11-.54-.2-.87-.3-.33-.09-.71-.14-1.13-.14-.3 0-.56.03-.78.09-.22.06-.4.15-.54.26-.14.11-.25.25-.32.4-.07.15-.11.32-.11.5 0 .27.08.5.25.69.17.18.39.35.66.49s.58.27.93.4c.35.12.7.26 1.06.4.36.15.71.32 1.06.51.35.19.66.43.93.71.27.28.49.62.66 1.01.16.43.24.89.24 1.43z"/></svg>